<?xml version="1.0" encoding="UTF-8" standalone="no"?>
<!DOCTYPE svg PUBLIC "-//W3C//DTD SVG 1.1//EN"
 "http://www.w3.org/Graphics/SVG/1.1/DTD/svg11.dtd">
<!-- Generated by graphviz version 5.0.1 (0)
 -->
<!-- Pages: 1 -->
<svg width="914pt" height="914pt"
 viewBox="0.00 0.00 913.83 913.60" xmlns="http://www.w3.org/2000/svg" xmlns:xlink="http://www.w3.org/1999/xlink">
<g id="graph0" class="graph" transform="scale(1 1) rotate(0) translate(4 909.6)">
<polygon fill="white" stroke="none" points="-4,4 -4,-909.6 909.83,-909.6 909.83,4 -4,4"/>
<!-- IR -->
<g id="node1" class="node">
<title>IR</title>
<ellipse fill="none" stroke="black" cx="381.55" cy="-161.04" rx="27" ry="18"/>
<text text-anchor="middle" x="381.55" y="-157.34" font-family="Times,serif" font-size="14.00">IR</text>
</g>
<!-- XN -->
<g id="node2" class="node">
<title>XN</title>
<ellipse fill="none" stroke="blue" cx="281.01" cy="-168.95" rx="40.09" ry="18"/>
<text text-anchor="middle" x="281.01" y="-165.25" font-family="Times,serif" font-size="14.00">XN (7)</text>
</g>
<!-- IR&#45;&#45;XN -->
<g id="edge1" class="edge">
<title>IR&#45;&#45;XN</title>
<path fill="none" stroke="black" d="M354.61,-163.16C344.26,-163.98 332.21,-164.92 320.89,-165.82"/>
</g>
<!-- UI -->
<g id="node12" class="node">
<title>UI</title>
<ellipse fill="none" stroke="blue" cx="449.59" cy="-272.56" rx="37.89" ry="18"/>
<text text-anchor="middle" x="449.59" y="-268.86" font-family="Times,serif" font-size="14.00">UI (8)</text>
</g>
<!-- IR&#45;&#45;UI -->
<g id="edge9" class="edge">
<title>IR&#45;&#45;UI</title>
<path fill="none" stroke="black" d="M391.89,-177.98C404.6,-198.82 426.07,-234.02 438.93,-255.09"/>
</g>
<!-- OG -->
<g id="node37" class="node">
<title>OG</title>
<ellipse fill="none" stroke="black" cx="217.01" cy="-117.77" rx="27" ry="18"/>
<text text-anchor="middle" x="217.01" y="-114.07" font-family="Times,serif" font-size="14.00">OG</text>
</g>
<!-- XN&#45;&#45;OG -->
<g id="edge70" class="edge">
<title>XN&#45;&#45;OG</title>
<path fill="none" stroke="black" d="M261.12,-153.04C252.6,-146.23 242.75,-138.35 234.52,-131.77"/>
</g>
<!-- VD -->
<g id="node39" class="node">
<title>VD</title>
<ellipse fill="none" stroke="black" cx="303.26" cy="-237.43" rx="27" ry="18"/>
<text text-anchor="middle" x="303.26" y="-233.73" font-family="Times,serif" font-size="14.00">VD</text>
</g>
<!-- XN&#45;&#45;VD -->
<g id="edge49" class="edge">
<title>XN&#45;&#45;VD</title>
<path fill="none" stroke="black" d="M286.86,-186.94C290.16,-197.09 294.26,-209.71 297.53,-219.8"/>
</g>
<!-- LQ -->
<g id="node3" class="node">
<title>LQ</title>
<ellipse fill="none" stroke="black" cx="144.12" cy="-578.03" rx="27" ry="18"/>
<text text-anchor="middle" x="144.12" y="-574.33" font-family="Times,serif" font-size="14.00">LQ</text>
</g>
<!-- JT -->
<g id="node4" class="node">
<title>JT</title>
<ellipse fill="none" stroke="blue" cx="93.2" cy="-628.94" rx="41.69" ry="18"/>
<text text-anchor="middle" x="93.2" y="-625.24" font-family="Times,serif" font-size="14.00">JT (21)</text>
</g>
<!-- LQ&#45;&#45;JT -->
<g id="edge2" class="edge">
<title>LQ&#45;&#45;JT</title>
<path fill="none" stroke="black" d="M129.12,-593.03C123.13,-599.01 116.22,-605.93 110.06,-612.08"/>
</g>
<!-- EY -->
<g id="node7" class="node">
<title>EY</title>
<ellipse fill="none" stroke="blue" cx="195.03" cy="-527.12" rx="44.69" ry="18"/>
<text text-anchor="middle" x="195.03" y="-523.42" font-family="Times,serif" font-size="14.00">EY (10)</text>
</g>
<!-- LQ&#45;&#45;EY -->
<g id="edge68" class="edge">
<title>LQ&#45;&#45;EY</title>
<path fill="none" stroke="black" d="M159.12,-563.03C165.1,-557.05 172.02,-550.13 178.17,-543.97"/>
</g>
<!-- TR -->
<g id="node5" class="node">
<title>TR</title>
<ellipse fill="none" stroke="blue" cx="860.98" cy="-112.88" rx="44.69" ry="18"/>
<text text-anchor="middle" x="860.98" y="-109.18" font-family="Times,serif" font-size="14.00">TR (18)</text>
</g>
<!-- HI -->
<g id="node6" class="node">
<title>HI</title>
<ellipse fill="none" stroke="black" cx="796.83" cy="-145.57" rx="27" ry="18"/>
<text text-anchor="middle" x="796.83" y="-141.87" font-family="Times,serif" font-size="14.00">HI</text>
</g>
<!-- TR&#45;&#45;HI -->
<g id="edge3" class="edge">
<title>TR&#45;&#45;HI</title>
<path fill="none" stroke="black" d="M833.03,-127.13C828.17,-129.6 823.18,-132.15 818.52,-134.52"/>
</g>
<!-- XC -->
<g id="node8" class="node">
<title>XC</title>
<ellipse fill="none" stroke="black" cx="245.94" cy="-476.21" rx="27" ry="18"/>
<text text-anchor="middle" x="245.94" y="-472.51" font-family="Times,serif" font-size="14.00">XC</text>
</g>
<!-- EY&#45;&#45;XC -->
<g id="edge4" class="edge">
<title>EY&#45;&#45;XC</title>
<path fill="none" stroke="black" d="M211.98,-510.16C218.11,-504.03 224.99,-497.16 230.94,-491.2"/>
</g>
<!-- RC -->
<g id="node51" class="node">
<title>RC</title>
<ellipse fill="none" stroke="black" cx="217.01" cy="-630.99" rx="27" ry="18"/>
<text text-anchor="middle" x="217.01" y="-627.29" font-family="Times,serif" font-size="14.00">RC</text>
</g>
<!-- EY&#45;&#45;RC -->
<g id="edge53" class="edge">
<title>EY&#45;&#45;RC</title>
<path fill="none" stroke="black" d="M198.86,-545.21C202.89,-564.28 209.21,-594.12 213.23,-613.11"/>
</g>
<!-- BU -->
<g id="node9" class="node">
<title>BU</title>
<ellipse fill="none" stroke="black" cx="653.23" cy="-68.91" rx="27" ry="18"/>
<text text-anchor="middle" x="653.23" y="-65.21" font-family="Times,serif" font-size="14.00">BU</text>
</g>
<!-- ES -->
<g id="node10" class="node">
<title>ES</title>
<ellipse fill="none" stroke="blue" cx="704.14" cy="-18" rx="45.49" ry="18"/>
<text text-anchor="middle" x="704.14" y="-14.3" font-family="Times,serif" font-size="14.00">ES (13)</text>
</g>
<!-- BU&#45;&#45;ES -->
<g id="edge5" class="edge">
<title>BU&#45;&#45;ES</title>
<path fill="none" stroke="black" d="M668.23,-53.91C674.22,-47.93 681.13,-41.01 687.29,-34.86"/>
</g>
<!-- JK -->
<g id="node11" class="node">
<title>JK</title>
<ellipse fill="none" stroke="black" cx="445.82" cy="-181.92" rx="27" ry="18"/>
<text text-anchor="middle" x="445.82" y="-178.22" font-family="Times,serif" font-size="14.00">JK</text>
</g>
<!-- JK&#45;&#45;UI -->
<g id="edge6" class="edge">
<title>JK&#45;&#45;UI</title>
<path fill="none" stroke="black" d="M446.59,-200.27C447.24,-216.09 448.19,-238.82 448.84,-254.55"/>
</g>
<!-- QV -->
<g id="node27" class="node">
<title>QV</title>
<ellipse fill="none" stroke="black" cx="63.31" cy="-329.33" rx="27" ry="18"/>
<text text-anchor="middle" x="63.31" y="-325.63" font-family="Times,serif" font-size="14.00">QV</text>
</g>
<!-- JK&#45;&#45;QV -->
<g id="edge16" class="edge">
<title>JK&#45;&#45;QV</title>
<path fill="none" stroke="black" d="M422.18,-191.03C353.61,-217.46 155.16,-293.93 86.79,-320.28"/>
</g>
<!-- NE -->
<g id="node13" class="node">
<title>NE</title>
<ellipse fill="none" stroke="black" cx="580.76" cy="-205.1" rx="27" ry="18"/>
<text text-anchor="middle" x="580.76" y="-201.4" font-family="Times,serif" font-size="14.00">NE</text>
</g>
<!-- IA -->
<g id="node14" class="node">
<title>IA</title>
<ellipse fill="none" stroke="black" cx="522.51" cy="-247.42" rx="27" ry="18"/>
<text text-anchor="middle" x="522.51" y="-243.72" font-family="Times,serif" font-size="14.00">IA</text>
</g>
<!-- NE&#45;&#45;IA -->
<g id="edge7" class="edge">
<title>NE&#45;&#45;IA</title>
<path fill="none" stroke="black" d="M562.33,-218.49C555.53,-223.43 547.83,-229.03 541.02,-233.97"/>
</g>
<!-- IA&#45;&#45;UI -->
<g id="edge55" class="edge">
<title>IA&#45;&#45;UI</title>
<path fill="none" stroke="black" d="M498.23,-255.79C492.51,-257.76 486.34,-259.89 480.38,-261.94"/>
</g>
<!-- YZ -->
<g id="node15" class="node">
<title>YZ</title>
<ellipse fill="none" stroke="black" cx="576.57" cy="-823.45" rx="27" ry="18"/>
<text text-anchor="middle" x="576.57" y="-819.75" font-family="Times,serif" font-size="14.00">YZ</text>
</g>
<!-- YA -->
<g id="node16" class="node">
<title>YA</title>
<ellipse fill="none" stroke="blue" cx="609.26" cy="-887.6" rx="44.39" ry="18"/>
<text text-anchor="middle" x="609.26" y="-883.9" font-family="Times,serif" font-size="14.00">YA (12)</text>
</g>
<!-- YZ&#45;&#45;YA -->
<g id="edge8" class="edge">
<title>YZ&#45;&#45;YA</title>
<path fill="none" stroke="black" d="M585.33,-840.64C589.95,-849.7 595.6,-860.79 600.25,-869.92"/>
</g>
<!-- TE -->
<g id="node17" class="node">
<title>TE</title>
<ellipse fill="none" stroke="black" cx="426.61" cy="-872.18" rx="27" ry="18"/>
<text text-anchor="middle" x="426.61" y="-868.48" font-family="Times,serif" font-size="14.00">TE</text>
</g>
<!-- TE&#45;&#45;YA -->
<g id="edge10" class="edge">
<title>TE&#45;&#45;YA</title>
<path fill="none" stroke="black" d="M453.56,-874.45C483.13,-876.95 531.02,-880.99 565.89,-883.94"/>
</g>
<!-- RY -->
<g id="node30" class="node">
<title>RY</title>
<ellipse fill="none" stroke="black" cx="415.34" cy="-801.06" rx="27" ry="18"/>
<text text-anchor="middle" x="415.34" y="-797.36" font-family="Times,serif" font-size="14.00">RY</text>
</g>
<!-- TE&#45;&#45;RY -->
<g id="edge66" class="edge">
<title>TE&#45;&#45;RY</title>
<path fill="none" stroke="black" d="M423.76,-854.23C422.07,-843.53 419.92,-829.99 418.22,-819.25"/>
</g>
<!-- UB -->
<g id="node18" class="node">
<title>UB</title>
<ellipse fill="none" stroke="black" cx="390.08" cy="-432.63" rx="27" ry="18"/>
<text text-anchor="middle" x="390.08" y="-428.93" font-family="Times,serif" font-size="14.00">UB</text>
</g>
<!-- AA -->
<g id="node19" class="node">
<title>AA</title>
<ellipse fill="none" stroke="red" cx="347.76" cy="-374.38" rx="27" ry="18"/>
<text text-anchor="middle" x="347.76" y="-370.68" font-family="Times,serif" font-size="14.00">AA</text>
</g>
<!-- UB&#45;&#45;AA -->
<g id="edge11" class="edge">
<title>UB&#45;&#45;AA</title>
<path fill="none" stroke="black" d="M378.29,-416.41C372.52,-408.46 365.58,-398.91 359.78,-390.93"/>
</g>
<!-- OM -->
<g id="node47" class="node">
<title>OM</title>
<ellipse fill="none" stroke="black" cx="432.4" cy="-490.88" rx="27.1" ry="18"/>
<text text-anchor="middle" x="432.4" y="-487.18" font-family="Times,serif" font-size="14.00">OM</text>
</g>
<!-- UB&#45;&#45;OM -->
<g id="edge63" class="edge">
<title>UB&#45;&#45;OM</title>
<path fill="none" stroke="black" d="M401.87,-448.86C407.64,-456.8 414.58,-466.35 420.38,-474.34"/>
</g>
<!-- AT -->
<g id="node20" class="node">
<title>AT</title>
<ellipse fill="none" stroke="blue" cx="639.01" cy="-162.78" rx="44.39" ry="18"/>
<text text-anchor="middle" x="639.01" y="-159.08" font-family="Times,serif" font-size="14.00">AT (17)</text>
</g>
<!-- AT&#45;&#45;BU -->
<g id="edge60" class="edge">
<title>AT&#45;&#45;BU</title>
<path fill="none" stroke="black" d="M641.75,-144.68C644.27,-128.06 647.98,-103.56 650.5,-86.95"/>
</g>
<!-- AT&#45;&#45;NE -->
<g id="edge21" class="edge">
<title>AT&#45;&#45;NE</title>
<path fill="none" stroke="black" d="M617.32,-178.54C611.37,-182.86 604.97,-187.51 599.22,-191.69"/>
</g>
<!-- BR -->
<g id="node21" class="node">
<title>BR</title>
<ellipse fill="none" stroke="black" cx="291.45" cy="-18.81" rx="27" ry="18"/>
<text text-anchor="middle" x="291.45" y="-15.11" font-family="Times,serif" font-size="14.00">BR</text>
</g>
<!-- AT&#45;&#45;BR -->
<g id="edge12" class="edge">
<title>AT&#45;&#45;BR</title>
<path fill="none" stroke="black" d="M607.86,-149.88C539.04,-121.37 375.37,-53.58 314.64,-28.42"/>
</g>
<!-- TD -->
<g id="node50" class="node">
<title>TD</title>
<ellipse fill="none" stroke="black" cx="93.2" cy="-119.82" rx="27" ry="18"/>
<text text-anchor="middle" x="93.2" y="-116.12" font-family="Times,serif" font-size="14.00">TD</text>
</g>
<!-- AT&#45;&#45;TD -->
<g id="edge64" class="edge">
<title>AT&#45;&#45;TD</title>
<path fill="none" stroke="black" d="M595.27,-159.34C486.87,-150.81 208.25,-128.88 120.26,-121.95"/>
</g>
<!-- DX -->
<g id="node53" class="node">
<title>DX</title>
<ellipse fill="none" stroke="black" cx="732.68" cy="-178.26" rx="27" ry="18"/>
<text text-anchor="middle" x="732.68" y="-174.56" font-family="Times,serif" font-size="14.00">DX</text>
</g>
<!-- AT&#45;&#45;DX -->
<g id="edge51" class="edge">
<title>AT&#45;&#45;DX</title>
<path fill="none" stroke="black" d="M680.09,-169.57C689.04,-171.05 698.27,-172.57 706.45,-173.92"/>
</g>
<!-- OC -->
<g id="node22" class="node">
<title>OC</title>
<ellipse fill="none" stroke="blue" cx="142.33" cy="-307.63" rx="40.09" ry="18"/>
<text text-anchor="middle" x="142.33" y="-303.93" font-family="Times,serif" font-size="14.00">OC (4)</text>
</g>
<!-- PE -->
<g id="node23" class="node">
<title>PE</title>
<ellipse fill="none" stroke="black" cx="63.31" cy="-419.43" rx="27" ry="18"/>
<text text-anchor="middle" x="63.31" y="-415.73" font-family="Times,serif" font-size="14.00">PE</text>
</g>
<!-- OC&#45;&#45;PE -->
<g id="edge13" class="edge">
<title>OC&#45;&#45;PE</title>
<path fill="none" stroke="black" d="M129.99,-325.1C114.97,-346.35 89.8,-381.96 75.05,-402.82"/>
</g>
<!-- OC&#45;&#45;QV -->
<g id="edge47" class="edge">
<title>OC&#45;&#45;QV</title>
<path fill="none" stroke="black" d="M107.9,-317.09C101.41,-318.87 94.74,-320.7 88.59,-322.39"/>
</g>
<!-- LJ -->
<g id="node35" class="node">
<title>LJ</title>
<ellipse fill="none" stroke="black" cx="210.81" cy="-329.88" rx="27" ry="18"/>
<text text-anchor="middle" x="210.81" y="-326.18" font-family="Times,serif" font-size="14.00">LJ</text>
</g>
<!-- OC&#45;&#45;LJ -->
<g id="edge23" class="edge">
<title>OC&#45;&#45;LJ</title>
<path fill="none" stroke="black" d="M174.97,-318.24C178.83,-319.49 182.71,-320.75 186.43,-321.96"/>
</g>
<!-- QI -->
<g id="node42" class="node">
<title>QI</title>
<ellipse fill="none" stroke="black" cx="91.15" cy="-243.63" rx="27" ry="18"/>
<text text-anchor="middle" x="91.15" y="-239.93" font-family="Times,serif" font-size="14.00">QI</text>
</g>
<!-- OC&#45;&#45;QI -->
<g id="edge65" class="edge">
<title>OC&#45;&#45;QI</title>
<path fill="none" stroke="black" d="M128.62,-290.48C121.04,-281 111.67,-269.29 104.2,-259.95"/>
</g>
<!-- WX -->
<g id="node48" class="node">
<title>WX</title>
<ellipse fill="none" stroke="black" cx="144.12" cy="-170.74" rx="27" ry="18"/>
<text text-anchor="middle" x="144.12" y="-167.04" font-family="Times,serif" font-size="14.00">WX</text>
</g>
<!-- OC&#45;&#45;WX -->
<g id="edge34" class="edge">
<title>OC&#45;&#45;WX</title>
<path fill="none" stroke="black" d="M142.57,-289.46C142.91,-263.27 143.54,-215.22 143.88,-188.99"/>
</g>
<!-- CI -->
<g id="node55" class="node">
<title>CI</title>
<ellipse fill="none" stroke="black" cx="302.71" cy="-658.84" rx="27" ry="18"/>
<text text-anchor="middle" x="302.71" y="-655.14" font-family="Times,serif" font-size="14.00">CI</text>
</g>
<!-- PE&#45;&#45;CI -->
<g id="edge67" class="edge">
<title>PE&#45;&#45;CI</title>
<path fill="none" stroke="black" d="M78.65,-434.77C121.89,-478.02 244.41,-600.54 287.5,-643.62"/>
</g>
<!-- CF -->
<g id="node24" class="node">
<title>CF</title>
<ellipse fill="none" stroke="black" cx="302.71" cy="-89.93" rx="27" ry="18"/>
<text text-anchor="middle" x="302.71" y="-86.23" font-family="Times,serif" font-size="14.00">CF</text>
</g>
<!-- CF&#45;&#45;XN -->
<g id="edge14" class="edge">
<title>CF&#45;&#45;XN</title>
<path fill="none" stroke="black" d="M297.79,-107.86C294.26,-120.7 289.53,-137.93 285.99,-150.82"/>
</g>
<!-- CF&#45;&#45;BR -->
<g id="edge25" class="edge">
<title>CF&#45;&#45;BR</title>
<path fill="none" stroke="black" d="M299.87,-71.98C298.17,-61.28 296.03,-47.74 294.33,-37"/>
</g>
<!-- AQ -->
<g id="node25" class="node">
<title>AQ</title>
<ellipse fill="none" stroke="black" cx="732.68" cy="-570.51" rx="27" ry="18"/>
<text text-anchor="middle" x="732.68" y="-566.81" font-family="Times,serif" font-size="14.00">AQ</text>
</g>
<!-- AZ -->
<g id="node26" class="node">
<title>AZ</title>
<ellipse fill="none" stroke="blue" cx="404.08" cy="-729.95" rx="44.69" ry="18"/>
<text text-anchor="middle" x="404.08" y="-726.25" font-family="Times,serif" font-size="14.00">AZ (14)</text>
</g>
<!-- AQ&#45;&#45;AZ -->
<g id="edge15" class="edge">
<title>AQ&#45;&#45;AZ</title>
<path fill="none" stroke="black" d="M710.61,-581.21C652.9,-609.21 497.56,-684.59 432.92,-715.96"/>
</g>
<!-- AZ&#45;&#45;RC -->
<g id="edge38" class="edge">
<title>AZ&#45;&#45;RC</title>
<path fill="none" stroke="black" d="M376.88,-715.56C339.38,-695.73 272.59,-660.39 238.43,-642.32"/>
</g>
<!-- VK -->
<g id="node28" class="node">
<title>VK</title>
<ellipse fill="none" stroke="blue" cx="474.72" cy="-549.13" rx="45.49" ry="18"/>
<text text-anchor="middle" x="474.72" y="-545.43" font-family="Times,serif" font-size="14.00">VK (11)</text>
</g>
<!-- ZL -->
<g id="node29" class="node">
<title>ZL</title>
<ellipse fill="none" stroke="black" cx="632.22" cy="-419.43" rx="27" ry="18"/>
<text text-anchor="middle" x="632.22" y="-415.73" font-family="Times,serif" font-size="14.00">ZL</text>
</g>
<!-- VK&#45;&#45;ZL -->
<g id="edge17" class="edge">
<title>VK&#45;&#45;ZL</title>
<path fill="none" stroke="black" d="M494.67,-532.7C525.79,-507.07 585.38,-458 614.85,-433.74"/>
</g>
<!-- XJ -->
<g id="node43" class="node">
<title>XJ</title>
<ellipse fill="none" stroke="black" cx="551.41" cy="-578.03" rx="27" ry="18"/>
<text text-anchor="middle" x="551.41" y="-574.33" font-family="Times,serif" font-size="14.00">XJ</text>
</g>
<!-- VK&#45;&#45;XJ -->
<g id="edge35" class="edge">
<title>VK&#45;&#45;XJ</title>
<path fill="none" stroke="black" d="M507.69,-561.55C514.35,-564.06 521.23,-566.65 527.5,-569.02"/>
</g>
<!-- VK&#45;&#45;OM -->
<g id="edge33" class="edge">
<title>VK&#45;&#45;OM</title>
<path fill="none" stroke="black" d="M462.03,-531.65C456.38,-523.88 449.77,-514.78 444.22,-507.15"/>
</g>
<!-- VA -->
<g id="node49" class="node">
<title>VA</title>
<ellipse fill="none" stroke="black" cx="392.82" cy="-658.84" rx="27" ry="18"/>
<text text-anchor="middle" x="392.82" y="-655.14" font-family="Times,serif" font-size="14.00">VA</text>
</g>
<!-- VK&#45;&#45;VA -->
<g id="edge40" class="edge">
<title>VK&#45;&#45;VA</title>
<path fill="none" stroke="black" d="M461.56,-566.76C445.92,-587.71 420.02,-622.4 404.88,-642.68"/>
</g>
<!-- VK&#45;&#45;CI -->
<g id="edge46" class="edge">
<title>VK&#45;&#45;CI</title>
<path fill="none" stroke="black" d="M450.44,-564.62C416.09,-586.53 353.95,-626.16 322.33,-646.32"/>
</g>
<!-- RY&#45;&#45;AZ -->
<g id="edge18" class="edge">
<title>RY&#45;&#45;AZ</title>
<path fill="none" stroke="black" d="M412.5,-783.12C410.81,-772.42 408.66,-758.88 406.96,-748.14"/>
</g>
<!-- SZ -->
<g id="node31" class="node">
<title>SZ</title>
<ellipse fill="none" stroke="black" cx="543.89" cy="-759.3" rx="27" ry="18"/>
<text text-anchor="middle" x="543.89" y="-755.6" font-family="Times,serif" font-size="14.00">SZ</text>
</g>
<!-- SZ&#45;&#45;YZ -->
<g id="edge19" class="edge">
<title>SZ&#45;&#45;YZ</title>
<path fill="none" stroke="black" d="M552.65,-776.49C557.34,-785.69 563.1,-797 567.79,-806.21"/>
</g>
<!-- GQ -->
<g id="node40" class="node">
<title>GQ</title>
<ellipse fill="none" stroke="blue" cx="602.32" cy="-628.94" rx="46.59" ry="18"/>
<text text-anchor="middle" x="602.32" y="-625.24" font-family="Times,serif" font-size="14.00">GQ (22)</text>
</g>
<!-- SZ&#45;&#45;GQ -->
<g id="edge50" class="edge">
<title>SZ&#45;&#45;GQ</title>
<path fill="none" stroke="black" d="M551.65,-741.99C562.76,-717.19 583.11,-671.8 594.34,-646.74"/>
</g>
<!-- EB -->
<g id="node32" class="node">
<title>EB</title>
<ellipse fill="none" stroke="black" cx="296.85" cy="-425.29" rx="27" ry="18"/>
<text text-anchor="middle" x="296.85" y="-421.59" font-family="Times,serif" font-size="14.00">EB</text>
</g>
<!-- EB&#45;&#45;XC -->
<g id="edge20" class="edge">
<title>EB&#45;&#45;XC</title>
<path fill="none" stroke="black" d="M281.85,-440.29C275.28,-446.86 267.59,-454.56 261.01,-461.14"/>
</g>
<!-- EB&#45;&#45;AA -->
<g id="edge54" class="edge">
<title>EB&#45;&#45;AA</title>
<path fill="none" stroke="black" d="M311.85,-410.29C318.42,-403.72 326.12,-396.03 332.69,-389.45"/>
</g>
<!-- DF -->
<g id="node33" class="node">
<title>DF</title>
<ellipse fill="none" stroke="black" cx="184.33" cy="-53.62" rx="27" ry="18"/>
<text text-anchor="middle" x="184.33" y="-49.92" font-family="Times,serif" font-size="14.00">DF</text>
</g>
<!-- RK -->
<g id="node34" class="node">
<title>RK</title>
<ellipse fill="none" stroke="blue" cx="632.22" cy="-329.33" rx="40.09" ry="18"/>
<text text-anchor="middle" x="632.22" y="-325.63" font-family="Times,serif" font-size="14.00">RK (9)</text>
</g>
<!-- DF&#45;&#45;RK -->
<g id="edge22" class="edge">
<title>DF&#45;&#45;RK</title>
<path fill="none" stroke="black" d="M204.44,-66C277.63,-111.06 529.61,-266.17 608.45,-314.7"/>
</g>
<!-- SP -->
<g id="node36" class="node">
<title>SP</title>
<ellipse fill="none" stroke="black" cx="279.29" cy="-352.13" rx="27" ry="18"/>
<text text-anchor="middle" x="279.29" y="-348.43" font-family="Times,serif" font-size="14.00">SP</text>
</g>
<!-- SP&#45;&#45;AA -->
<g id="edge39" class="edge">
<title>SP&#45;&#45;AA</title>
<path fill="none" stroke="black" d="M303.62,-360.04C309.93,-362.09 316.72,-364.3 323.04,-366.35"/>
</g>
<!-- SP&#45;&#45;LJ -->
<g id="edge24" class="edge">
<title>SP&#45;&#45;LJ</title>
<path fill="none" stroke="black" d="M254.95,-344.23C248.65,-342.18 241.85,-339.97 235.53,-337.91"/>
</g>
<!-- OG&#45;&#45;DF -->
<g id="edge26" class="edge">
<title>OG&#45;&#45;DF</title>
<path fill="none" stroke="black" d="M208.25,-100.58C203.56,-91.38 197.8,-80.07 193.11,-70.86"/>
</g>
<!-- FF -->
<g id="node38" class="node">
<title>FF</title>
<ellipse fill="none" stroke="black" cx="325.51" cy="-305.91" rx="27" ry="18"/>
<text text-anchor="middle" x="325.51" y="-302.21" font-family="Times,serif" font-size="14.00">FF</text>
</g>
<!-- FF&#45;&#45;AA -->
<g id="edge42" class="edge">
<title>FF&#45;&#45;AA</title>
<path fill="none" stroke="black" d="M331.24,-323.54C334.54,-333.68 338.67,-346.39 341.97,-356.57"/>
</g>
<!-- FF&#45;&#45;VD -->
<g id="edge27" class="edge">
<title>FF&#45;&#45;VD</title>
<path fill="none" stroke="black" d="M319.78,-288.27C316.49,-278.13 312.36,-265.42 309.05,-255.24"/>
</g>
<!-- GQ&#45;&#45;AQ -->
<g id="edge48" class="edge">
<title>GQ&#45;&#45;AQ</title>
<path fill="none" stroke="black" d="M632.88,-615.24C656.51,-604.65 688.69,-590.22 710.05,-580.65"/>
</g>
<!-- OW -->
<g id="node41" class="node">
<title>OW</title>
<ellipse fill="none" stroke="black" cx="653.23" cy="-679.85" rx="27.1" ry="18"/>
<text text-anchor="middle" x="653.23" y="-676.15" font-family="Times,serif" font-size="14.00">OW</text>
</g>
<!-- GQ&#45;&#45;OW -->
<g id="edge28" class="edge">
<title>GQ&#45;&#45;OW</title>
<path fill="none" stroke="black" d="M619.27,-645.89C625.29,-651.91 632.02,-658.64 637.9,-664.52"/>
</g>
<!-- GQ&#45;&#45;XJ -->
<g id="edge30" class="edge">
<title>GQ&#45;&#45;XJ</title>
<path fill="none" stroke="black" d="M585.37,-611.99C579.24,-605.86 572.36,-598.98 566.41,-593.03"/>
</g>
<!-- QI&#45;&#45;XN -->
<g id="edge29" class="edge">
<title>QI&#45;&#45;XN</title>
<path fill="none" stroke="black" d="M114.43,-234.48C148.69,-221 212.72,-195.81 250.64,-180.9"/>
</g>
<!-- UE -->
<g id="node44" class="node">
<title>UE</title>
<ellipse fill="none" stroke="black" cx="561.1" cy="-340.59" rx="27" ry="18"/>
<text text-anchor="middle" x="561.1" y="-336.89" font-family="Times,serif" font-size="14.00">UE</text>
</g>
<!-- UE&#45;&#45;UI -->
<g id="edge62" class="edge">
<title>UE&#45;&#45;UI</title>
<path fill="none" stroke="black" d="M541.17,-328.43C522,-316.73 493.03,-299.06 472.82,-286.73"/>
</g>
<!-- UE&#45;&#45;RK -->
<g id="edge31" class="edge">
<title>UE&#45;&#45;RK</title>
<path fill="none" stroke="black" d="M587.58,-336.4C589.64,-336.07 591.73,-335.74 593.84,-335.41"/>
</g>
<!-- AL -->
<g id="node45" class="node">
<title>AL</title>
<ellipse fill="none" stroke="black" cx="703.33" cy="-430.7" rx="27" ry="18"/>
<text text-anchor="middle" x="703.33" y="-427" font-family="Times,serif" font-size="14.00">AL</text>
</g>
<!-- AL&#45;&#45;ZL -->
<g id="edge45" class="edge">
<title>AL&#45;&#45;ZL</title>
<path fill="none" stroke="black" d="M676.85,-426.5C671.01,-425.58 664.81,-424.6 658.96,-423.67"/>
</g>
<!-- WZ -->
<g id="node46" class="node">
<title>WZ</title>
<ellipse fill="none" stroke="blue" cx="774.44" cy="-441.96" rx="48.19" ry="18"/>
<text text-anchor="middle" x="774.44" y="-438.26" font-family="Times,serif" font-size="14.00">WZ (25)</text>
</g>
<!-- AL&#45;&#45;WZ -->
<g id="edge32" class="edge">
<title>AL&#45;&#45;WZ</title>
<path fill="none" stroke="black" d="M729.81,-434.89C729.97,-434.92 730.13,-434.94 730.28,-434.97"/>
</g>
<!-- VA&#45;&#45;AZ -->
<g id="edge36" class="edge">
<title>VA&#45;&#45;AZ</title>
<path fill="none" stroke="black" d="M395.66,-676.78C397.35,-687.48 399.5,-701.02 401.2,-711.76"/>
</g>
<!-- TD&#45;&#45;WX -->
<g id="edge37" class="edge">
<title>TD&#45;&#45;WX</title>
<path fill="none" stroke="black" d="M108.2,-134.82C114.77,-141.39 122.47,-149.09 129.05,-155.67"/>
</g>
<!-- JH -->
<g id="node52" class="node">
<title>JH</title>
<ellipse fill="none" stroke="black" cx="27" cy="-537.82" rx="27" ry="18"/>
<text text-anchor="middle" x="27" y="-534.12" font-family="Times,serif" font-size="14.00">JH</text>
</g>
<!-- JH&#45;&#45;RK -->
<g id="edge41" class="edge">
<title>JH&#45;&#45;RK</title>
<path fill="none" stroke="black" d="M51.1,-529.52C145.85,-496.87 492.87,-377.33 600.3,-340.32"/>
</g>
<!-- DX&#45;&#45;HI -->
<g id="edge43" class="edge">
<title>DX&#45;&#45;HI</title>
<path fill="none" stroke="black" d="M754.4,-167.19C761.08,-163.78 768.45,-160.03 775.13,-156.63"/>
</g>
<!-- YL -->
<g id="node54" class="node">
<title>YL</title>
<ellipse fill="none" stroke="blue" cx="704.14" cy="-730.76" rx="44.39" ry="18"/>
<text text-anchor="middle" x="704.14" y="-727.06" font-family="Times,serif" font-size="14.00">YL (23)</text>
</g>
<!-- YL&#45;&#45;OW -->
<g id="edge44" class="edge">
<title>YL&#45;&#45;OW</title>
<path fill="none" stroke="black" d="M687.19,-713.81C681.17,-707.79 674.44,-701.06 668.57,-695.19"/>
</g>
<!-- ZW -->
<g id="node56" class="node">
<title>ZW</title>
<ellipse fill="none" stroke="black" cx="91.15" cy="-505.13" rx="27" ry="18"/>
<text text-anchor="middle" x="91.15" y="-501.43" font-family="Times,serif" font-size="14.00">ZW</text>
</g>
<!-- ZW&#45;&#45;EY -->
<g id="edge58" class="edge">
<title>ZW&#45;&#45;EY</title>
<path fill="none" stroke="black" d="M117.1,-510.62C128.63,-513.06 142.48,-515.99 155.27,-518.7"/>
</g>
<!-- ZW&#45;&#45;JH -->
<g id="edge52" class="edge">
<title>ZW&#45;&#45;JH</title>
<path fill="none" stroke="black" d="M69.43,-516.2C62.74,-519.61 55.38,-523.36 48.7,-526.76"/>
</g>
<!-- JO -->
<g id="node57" class="node">
<title>JO</title>
<ellipse fill="none" stroke="black" cx="398.67" cy="-323.47" rx="27" ry="18"/>
<text text-anchor="middle" x="398.67" y="-319.77" font-family="Times,serif" font-size="14.00">JO</text>
</g>
<!-- JO&#45;&#45;UI -->
<g id="edge56" class="edge">
<title>JO&#45;&#45;UI</title>
<path fill="none" stroke="black" d="M413.67,-308.47C419.77,-302.37 426.85,-295.3 433.09,-289.05"/>
</g>
<!-- JO&#45;&#45;AA -->
<g id="edge57" class="edge">
<title>JO&#45;&#45;AA</title>
<path fill="none" stroke="black" d="M383.67,-338.47C377.1,-345.04 369.41,-352.74 362.83,-359.31"/>
</g>
<!-- KW -->
<g id="node58" class="node">
<title>KW</title>
<ellipse fill="none" stroke="black" cx="755.06" cy="-781.68" rx="27" ry="18"/>
<text text-anchor="middle" x="755.06" y="-777.98" font-family="Times,serif" font-size="14.00">KW</text>
</g>
<!-- KW&#45;&#45;YL -->
<g id="edge59" class="edge">
<title>KW&#45;&#45;YL</title>
<path fill="none" stroke="black" d="M740.06,-766.68C734.07,-760.69 727.16,-753.78 721,-747.62"/>
</g>
<!-- MD -->
<g id="node59" class="node">
<title>MD</title>
<ellipse fill="none" stroke="black" cx="805.97" cy="-832.59" rx="27.1" ry="18"/>
<text text-anchor="middle" x="805.97" y="-828.89" font-family="Times,serif" font-size="14.00">MD</text>
</g>
<!-- KW&#45;&#45;MD -->
<g id="edge69" class="edge">
<title>KW&#45;&#45;MD</title>
<path fill="none" stroke="black" d="M770.06,-796.68C776.63,-803.25 784.32,-810.94 790.9,-817.52"/>
</g>
<!-- MD&#45;&#45;YA -->
<g id="edge61" class="edge">
<title>MD&#45;&#45;YA</title>
<path fill="none" stroke="black" d="M780.65,-839.67C746.41,-849.24 685.11,-866.39 645.85,-877.37"/>
</g>
</g>
</svg>
